<?xml version="1.0" encoding="utf-8"?>
<!-- Generator: Adobe Illustrator 27.8.1, SVG Export Plug-In . SVG Version: 6.00 Build 0)  -->
<svg version="1.1" id="Livello_1" xmlns="http://www.w3.org/2000/svg" xmlns:xlink="http://www.w3.org/1999/xlink" x="0px" y="0px"
	 viewBox="0 0 683 477" style="enable-background:new 0 0 683 477;" xml:space="preserve">
<style type="text/css">
	.st0{fill:#868686;}
	.st1{fill:#93C01F;}
	.st2{fill:#009540;}
	.st3{fill:#FFFFFF;stroke:#D9D9D9;stroke-width:0.1;stroke-miterlimit:10;}
	.st4{fill:#E20613;}
</style>
<g>
	<g>
		<g>
			<path class="st0" d="M17.77,429.63v-53.7h7.67v53.7H17.77z"/>
			<path class="st0" d="M53.75,429.63V382.6H35.34v-6.67h44.42v6.67H61.34v47.03H53.75z"/>
			<path class="st0" d="M110.77,375.93h-7.63l-24.29,53.7h7.88l5.92-13.43h28.51l5.92,13.43h8.06L110.77,375.93z M95.34,410.07
				l11.59-26.3l11.55,26.3H95.34z"/>
			<path class="st0" d="M144.65,429.63v-53.7h7.67v47.03h29.08v6.67H144.65z"/>
			<path class="st0" d="M191.76,429.63v-53.7h7.67v53.7H191.76z"/>
			<path class="st0" d="M240.84,375.93h-7.59l-24.34,53.7h7.93l5.88-13.43h28.55l5.92,13.43h8.05L240.84,375.93z M225.46,410.07
				l11.55-26.34l11.59,26.34H225.46z"/>
			<polygon class="st0" points="320.92,375.93 320.92,429.63 314.66,429.63 282.44,389.65 282.44,429.63 274.77,429.63 
				274.77,375.93 281.03,375.93 313.25,415.91 313.25,375.93 			"/>
			<polygon class="st0" points="399.73,422.94 399.73,429.63 360.77,429.63 360.77,375.93 398.66,375.93 398.66,382.62 
				368.45,382.62 368.45,399.12 395.34,399.12 395.34,405.64 368.45,405.64 368.45,422.94 			"/>
			<polygon class="st0" points="459.56,375.93 436,429.63 428.41,429.63 404.8,375.93 413.07,375.93 432.42,420.08 451.89,375.93 
							"/>
			<polygon class="st0" points="506.91,422.94 506.91,429.63 467.92,429.63 467.92,375.93 505.81,375.93 505.81,382.62 
				475.59,382.62 475.59,399.12 502.53,399.12 502.53,405.64 475.59,405.64 475.59,422.94 			"/>
			<polygon class="st0" points="567.05,375.93 567.05,429.63 560.74,429.63 528.52,389.61 528.52,429.63 520.85,429.63 
				520.85,375.93 527.16,375.93 559.38,415.95 559.38,375.93 			"/>
			<path class="st0" d="M595.35,429.63V382.6h-18.41v-6.67h44.42v6.67h-18.41v47.03H595.35z"/>
			<path class="st0" d="M646.21,430.24c-4.09,0-8.01-0.63-11.74-1.88c-3.73-1.25-6.67-2.88-8.82-4.87l2.84-5.99
				c2.05,1.79,4.65,3.28,7.83,4.45c3.17,1.18,6.47,1.76,9.9,1.76c3.12,0,5.65-0.36,7.6-1.07c1.94-0.71,3.38-1.7,4.3-2.95
				c0.92-1.25,1.38-2.67,1.38-4.26c0-1.84-0.6-3.32-1.8-4.45c-1.2-1.12-2.76-2.03-4.68-2.72c-1.92-0.69-4.03-1.29-6.33-1.8
				c-2.3-0.51-4.62-1.11-6.94-1.8c-2.33-0.69-4.45-1.57-6.37-2.65c-1.92-1.07-3.46-2.52-4.64-4.33c-1.18-1.81-1.76-4.15-1.76-7.02
				c0-2.76,0.73-5.3,2.19-7.63c1.46-2.33,3.71-4.19,6.75-5.6c3.04-1.41,6.92-2.11,11.62-2.11c3.12,0,6.21,0.41,9.28,1.23
				c3.07,0.82,5.73,2,7.98,3.53l-2.53,6.14c-2.3-1.53-4.73-2.65-7.29-3.34c-2.56-0.69-5.04-1.03-7.44-1.03
				c-3.02,0-5.5,0.38-7.44,1.15c-1.94,0.77-3.36,1.79-4.26,3.07c-0.89,1.28-1.34,2.71-1.34,4.3c0,1.89,0.6,3.4,1.8,4.53
				c1.2,1.12,2.76,2.02,4.68,2.68c1.92,0.67,4.03,1.27,6.33,1.8c2.3,0.54,4.62,1.14,6.94,1.8c2.33,0.67,4.45,1.54,6.37,2.61
				c1.92,1.07,3.46,2.51,4.64,4.3c1.18,1.79,1.76,4.09,1.76,6.9c0,2.71-0.74,5.23-2.22,7.56c-1.48,2.33-3.77,4.2-6.87,5.6
				C654.82,429.54,650.92,430.24,646.21,430.24z"/>
		</g>
		<g>
			<path class="st1" d="M250.7,167.07h53.84v122.66c-15.93,12.93-34.44,22.69-55.6,29.33c-21.16,6.58-42.79,9.93-64.83,9.93
				c-24.16,0-46.26-3.94-66.42-11.7c-20.16-7.82-37.73-18.93-52.72-33.33c-14.99-14.4-26.63-31.15-34.85-50.31
				c-8.23-19.1-12.34-40.26-12.34-63.48c0-23.28,4.11-44.43,12.34-63.54c8.23-19.16,19.93-35.91,35.09-50.31
				c15.11-14.4,32.8-25.51,52.9-33.33c20.16-7.76,42.61-11.7,67.3-11.7c25.86,0,49.31,4.29,70.35,12.81
				c21.04,8.52,38.73,21.04,53.19,37.5l-36.21,35.32c-12.05-12.11-25.04-20.98-39.03-26.74c-13.99-5.7-29.33-8.58-46.08-8.58
				c-16.52,0-31.56,2.64-45.26,7.93c-13.64,5.29-25.51,12.81-35.5,22.51c-9.99,9.7-17.81,21.16-23.39,34.38
				c-5.58,13.28-8.35,27.8-8.35,43.73c0,15.58,2.76,30.03,8.35,43.43c5.58,13.4,13.4,24.92,23.39,34.62
				c9.99,9.7,21.75,17.22,35.32,22.51c13.52,5.29,28.51,7.93,44.96,7.93c15.28,0,30.09-2.41,44.32-7.29
				c6.52-2.23,12.93-5.11,19.22-8.76V167.07z"/>
			<path class="st1" d="M654.65,106.63c-8.24-19.41-19.79-36.25-34.64-50.52c-14.86-14.26-32.43-25.29-52.72-33.09
				c-20.3-7.79-42.35-11.69-66.18-11.69c-24.11,0-46.32,3.98-66.62,11.91c-20.29,7.94-37.94,19.05-52.94,33.31
				c-15,14.27-26.62,31.03-34.84,50.29c-8.24,19.27-12.35,40.37-12.35,63.31c0,22.65,4.11,43.6,12.35,62.86
				c8.22,19.27,19.84,36.11,34.84,50.52c15,14.41,32.72,25.59,53.16,33.53c20.44,7.94,42.57,11.91,66.4,11.91s45.88-3.9,66.18-11.69
				c20.29-7.79,37.86-18.9,52.72-33.31c14.84-14.41,26.4-31.25,34.64-50.51c8.22-19.26,12.35-40.37,12.35-63.3
				C667,147.21,662.87,126.04,654.65,106.63z M464.98,208.82c-0.67,0.56-1.49,1.72-1.83,2.58c-0.6,1.46-0.6,1.61,0.07,2.91
				c0.41,0.78,0.71,1.83,0.71,2.35c0,0.52,0.34,1.91,0.75,3.1c0.71,2.09,0.75,2.35,0.19,4.89c-0.3,1.46-0.78,3.03-1.08,3.51
				c-0.3,0.45-0.64,1.64-0.78,2.69c-0.37,2.58-1.08,4.11-2.24,4.89c-0.93,0.6-1.01,0.6-1.53-0.19c-0.9-1.23-3.25-1.08-4.67,0.34
				c-0.93,0.9-1.05,1.23-0.71,1.83c0.19,0.41,0.37,0.93,0.37,1.16c0,0.75-3.81,2.24-5.79,2.24c-1.76-0.04-1.94-0.11-2.91-1.53
				l-1.05-1.49l-1.08,1.16c-1.57,1.68-2.09,1.31-1.94-1.31c0.04-1.16,0.26-2.43,0.45-2.8c0.22-0.37,0.37-1.61,0.37-2.69
				c0-1.08,0.19-2.65,0.41-3.47c0.22-0.82,0.37-2.09,0.37-2.8c-0.04-1.16,0.34-2.02,1.91-4.22c0.41-0.52,0.37-0.82-0.07-1.68
				c-0.49-0.78-0.86-1.01-1.87-1.01c-1.2-0.04-1.31-0.15-1.42-1.27c-0.11-1.01,0.11-1.49,1.05-2.47c1.16-1.2,1.16-1.31,0.9-3.4
				c-0.3-2.47-1.27-4.18-3.96-7.14c-1.91-2.06-2.09-2.58-1.31-4.15c0.3-0.56,0.75-2.73,1.01-4.86c0.52-3.92,1.23-5.49,1.72-3.66
				c0.15,0.64,0,1.31-0.37,1.91c-0.86,1.31-0.75,1.87,0.67,2.95c2.47,1.87,5.23,1.12,8.71-2.28c1.42-1.38,3.51-3.21,4.75-4.11
				c1.72-1.27,2.5-1.61,3.66-1.61c1.2,0,1.46,0.11,1.27,0.56c-0.11,0.37,0.11,0.71,0.64,0.97c1.01,0.45,1.87,2.62,1.83,4.52
				c-0.04,1.01,0.19,1.57,0.78,2.06c0.86,0.71,1.57,2.24,2.17,4.78c0.22,0.82,0.52,1.64,0.75,1.83c0.19,0.22,0.34,1.16,0.34,2.13
				C466.17,207.59,466.02,207.96,464.98,208.82z M601.88,216.33c-0.45,1.64-2.91,5.75-3.47,5.75c-0.71,0-3.59-1.46-4.18-2.17
				c-0.37-0.41-0.93-1.83-1.23-3.14c-0.3-1.35-1.12-3.21-1.87-4.33l-1.31-1.98l-2.32,0.22c-2.02,0.22-2.69,0.11-4.67-0.67
				c-1.27-0.52-2.84-1.38-3.47-1.87c-1.05-0.82-1.35-0.86-2.65-0.52c-1.31,0.34-1.83,0.82-3.89,3.59c-1.31,1.76-2.65,4.04-2.99,5.08
				c-0.34,1.01-1.01,2.5-1.49,3.25c-0.49,0.78-0.9,1.61-0.9,1.87c0,1.08,1.57,2.99,2.91,3.51c0.75,0.3,1.91,0.78,2.5,1.08
				c0.64,0.26,1.98,0.86,3.06,1.31c1.08,0.45,2.02,1.12,2.13,1.46c0.07,0.34,0.19,2.02,0.19,3.77c0.04,1.76,0.3,4.11,0.56,5.23
				c0.49,1.87,0.49,2.13-0.07,2.69c-0.34,0.34-2.06,0.93-3.74,1.38c-5.01,1.23-6.43,2.47-6.43,5.49c0,2.54-3.1,8.41-5.42,10.31
				c-0.45,0.34-1.31,1.68-1.94,2.99c-1.64,3.36-2.17,3.74-4.71,3.44c-2.32-0.26-3.21-1.12-4.04-3.81c-0.26-0.86-0.56-1.57-0.67-1.57
				c-0.64,0.04-1.94,1.08-2.73,2.13c-0.49,0.64-1.64,2.2-2.62,3.44c-1.31,1.72-1.79,2.77-1.98,4.07c-0.15,0.97-0.49,2.5-0.78,3.4
				c-0.75,2.43-0.67,2.99,0.82,5.23c2.65,3.92,2.95,5.68,1.46,8.63c-0.52,1.01-0.93,2.13-0.93,2.47c0,1.68-3.4,2.62-5.53,1.49
				c-0.56-0.3-2.17-0.64-3.55-0.78l-2.54-0.26l-1.38-2.13c-1.94-2.91-5.6-5.64-7.59-5.64c-1.12,0-3.36-0.93-9.23-3.77
				c-4.26-2.09-8.15-4.11-8.67-4.45c-0.52-0.37-1.76-0.93-2.8-1.27c-2.69-0.93-4.56-2.24-5.42-3.96c-1.08-2.13-0.93-3.29,0.78-6.69
				c1.61-3.14,2.84-4.3,5.08-4.75c1.01-0.19,1.16-0.07,1.79,1.31c0.37,0.86,0.78,1.53,0.9,1.53c0.11,0,1.01-0.86,1.94-1.91
				c2.43-2.76,2.77-2.73,9.12,0.9c3.81,2.17,4.63,2.35,6.2,1.53c1.35-0.71,4.86-0.78,8.11-0.15c2.02,0.37,4.07-0.07,7.06-1.49
				c1.53-0.71,3.47-1.23,5.6-1.53c1.83-0.22,4.04-0.75,4.97-1.12c0.93-0.41,2.69-0.93,3.92-1.2l2.24-0.49l0.64-2.13
				c0.64-2.09,0.64-2.17-0.11-3.4c-0.67-1.16-0.67-1.31-0.15-1.87c0.34-0.34,1.31-0.71,2.13-0.82c1.49-0.26,3.1-1.53,3.51-2.88
				c0.11-0.37-0.37-1.68-1.16-3.1c-1.27-2.28-1.38-2.62-1.12-4.52c0.26-2.05,0.22-2.13-1.61-4.75c-1.01-1.46-2.91-4.97-4.18-7.81
				c-2.47-5.34-2.77-5.68-4.41-4.56c-0.75,0.56-0.93,0.52-2.77-0.86c-1.08-0.78-2.2-1.72-2.5-2.09c-0.26-0.34-1.49-1.2-2.69-1.94
				c-2.17-1.31-2.54-1.76-1.83-2.2c0.97-0.6-0.22-4.52-1.79-5.94c-0.71-0.6-1.2-0.67-3.21-0.49c-1.35,0.11-3.03,0.49-3.74,0.78
				c-1.53,0.64-1.57,0.52-0.75-1.83c1.05-3.18,0.04-4-3.44-2.8c-3.62,1.27-4.71,0.49-4.37-3.21c0.37-3.55-2.39-6.8-5.72-6.8
				c-0.78,0-2.28-0.11-3.33-0.26c-1.79-0.26-1.94-0.22-4.11,1.46c-1.23,0.93-2.8,2.13-3.47,2.69c-0.67,0.56-1.31,0.93-1.42,0.82
				c-0.34-0.34,1.83-4.41,2.47-4.6c0.3-0.11,0.86-0.45,1.27-0.75c0.67-0.49,0.64-0.6-0.86-2.39c-1.2-1.42-1.98-1.98-3.14-2.28
				c-2.77-0.71-3.92-1.42-5.42-3.44c-0.82-1.08-2.2-2.73-3.06-3.66c-0.86-0.93-1.87-2.28-2.24-2.99c-0.78-1.53-1.57-2.28-3.36-3.18
				c-1.76-0.86-2.91-1.98-3.74-3.55c-0.71-1.42-5.6-5.68-6.95-6.13c-0.52-0.15-1.12,0.04-1.76,0.52c-1.2,0.93-1.64,0.93-1.94-0.04
				c-0.19-0.52,0.04-1.05,0.71-1.72c0.52-0.52,0.97-1.08,0.97-1.27c0-0.15-0.82-0.75-1.83-1.31c-1.2-0.64-1.94-1.31-2.06-1.87
				c-0.15-0.6-0.75-1.12-1.72-1.49c-1.35-0.52-1.57-0.82-2.09-2.58c-0.71-2.47-1.2-2.95-2.54-2.43c-0.56,0.19-1.16,0.37-1.35,0.37
				c-0.67,0-1.05-1.38-1.46-5.31c-0.3-2.95-0.64-4.52-1.31-5.83c-0.52-1.01-1.2-2.88-1.53-4.22c-2.43-9.49-4.48-12.33-8.22-11.4
				c-0.78,0.19-1.42-0.15-3.47-1.72c-4.45-3.47-4.93-3.77-6.09-3.51c-0.67,0.11-1.76-0.11-3.06-0.67c-4.33-1.94-7.85-1.61-9.42,0.9
				c-0.49,0.78-1.61,2.09-2.47,2.88c-0.86,0.78-1.87,2.09-2.2,2.95c-1.23,2.8-2.73,4.07-6.2,5.34c-4.07,1.49-4.82,1.49-5.6,0
				c-0.56-1.12-0.56-1.2,0.34-2.17c1.53-1.61,2.88-3.81,2.88-4.71c0-0.45-0.3-1.08-0.67-1.46c-0.67-0.56-0.82-0.56-2.54,0.19
				l-1.79,0.82l-3.59-0.86c-2.88-0.67-5.94-1.83-6.69-2.47c-0.07-0.04,0.34-1.27,0.86-2.69c0.82-2.09,0.93-2.77,0.6-3.59
				c-0.49-1.35-0.56-1.12,1.16-3.03c2.02-2.17,1.83-3.21-0.64-4.15c-1.23-0.49-2.24-1.27-3.55-2.84c-1.01-1.23-1.83-2.35-1.83-2.5
				c0-0.97,2.95-2.65,4.67-2.65c1.38,0,4.3-2.91,4.56-4.56c0.19-1.27,0.04-1.57-1.27-3.03c-0.86-0.93-1.79-2.47-2.13-3.55
				c-0.41-1.16-0.93-1.98-1.35-2.13c-0.82-0.26-1.23-1.16-0.9-2.13c0.11-0.37,1.38-1.31,2.88-2.02c2.43-1.23,2.77-1.31,3.89-0.93
				c1.01,0.37,1.64,0.34,3.36-0.15c1.46-0.41,2.73-0.56,4.04-0.37c1.64,0.19,2.09,0.11,3.36-0.78c2.95-1.94,3.89-3.14,4.15-5.16
				c0.22-1.68,0.49-2.13,2.35-4c1.16-1.12,2.47-2.17,2.91-2.28c0.86-0.22,0.86-0.26,1.42,3.14c0.15,0.9,0.78,2.09,1.76,3.18
				c1.76,2.09,2.69,2.69,4.11,2.73c0.9,0,1.05,0.19,1.23,1.57c0.15,0.97,0.71,2.13,1.35,2.91c1.08,1.27,1.16,1.27,1.68,0.56
				c0.71-0.97,1.27-3.06,1.27-4.89c0-0.97,0.52-2.54,1.49-4.63c0.9-1.76,1.49-3.51,1.42-4.07c-0.07-0.67,0.11-1.08,0.78-1.38
				c1.27-0.64,1.83-0.3,2.35,1.49c0.82,2.99,1.68,3.33,5.72,2.28c1.64-0.45,2.28-0.49,2.39-0.15c0.07,0.22,0.6,0.97,1.2,1.61
				c0.93,1.05,1.08,1.12,1.64,0.56c0.82-0.82,0.78-2.84-0.15-4.89c-0.75-1.64-0.75-1.87-0.26-3.1c0.64-1.49,0.97-1.57,2.39-0.6
				c1.49,1.05,3.36,1.38,3.66,0.6c0.15-0.3-0.04-0.9-0.37-1.27c-0.41-0.45-0.6-1.38-0.6-3.1V56.3l1.42-0.41
				c2.47-0.71,6.43,0.41,7.06,2.02c0.3,0.78,2.5,0.67,3.25-0.19c0.52-0.6,0.6-0.97,0.26-2.06c-0.34-1.27-0.3-1.38,0.64-1.87
				c0.56-0.26,2.35-0.78,4-1.16c1.64-0.34,3.66-0.78,4.48-0.93c0.82-0.19,2.24-0.34,3.18-0.37c0.93,0,2.43-0.26,3.36-0.52
				c2.5-0.82,2.73-0.75,2.43,0.41c-0.11,0.6-0.56,1.38-0.97,1.83c-0.93,0.97-0.9,1.08,0.34,1.61c0.93,0.41,2.5,2.28,3.7,4.41
				c0.34,0.6,1.01,0.9,2.24,1.08c1.01,0.11,2.99,0.64,4.48,1.12c1.94,0.64,3.51,0.9,5.72,0.9c1.91,0,4,0.26,5.53,0.71
				c1.38,0.41,2.95,0.82,3.55,0.93c1.64,0.37,1.23,1.38-1.61,3.92c-1.49,1.35-2.62,2.62-2.62,3.03c0,0.93,1.08,1.49,2.8,1.49
				c1.79,0,1.94,0.67,0.6,2.84c-1.46,2.43-1.53,2.84-0.41,3.14c0.78,0.19,0.93,0.41,0.86,1.53c-0.11,1.2,0.04,1.38,2.17,2.73
				c1.27,0.82,2.35,1.72,2.47,1.98c0.34,0.86-0.26,2.32-1.2,2.95c-1.01,0.64-0.9,0.71-3.55-2.54c-0.6-0.75-0.75-0.78-1.31-0.3
				c-0.49,0.41-1.64,0.56-4.15,0.56c-2.99,0-3.55,0.11-4.33,0.78c-0.45,0.41-2.54,1.68-4.6,2.73c-2.77,1.49-3.85,1.91-4.3,1.61
				c-0.82-0.52-2.32,0.37-3.47,2.13c-0.56,0.82-1.01,1.83-1.01,2.2c0,1.68,1.31,4.48,2.84,6.05c1.91,1.98,2.02,2.84,0.78,5.04
				c-0.82,1.42-0.93,1.49-2.39,1.38c-0.9-0.07-1.64,0.04-1.79,0.3c-0.3,0.52-0.04,2.02,1.91,10.09c1.01,4.22,1.46,5.57,2.13,6.09
				c0.45,0.37,3.81,2.69,7.44,5.16c3.66,2.47,6.91,4.86,7.25,5.34c0.49,0.75,0.75,0.86,1.64,0.6c0.9-0.26,1.2-0.11,2.17,0.86
				c0.6,0.67,1.31,1.61,1.57,2.09c0.97,1.87,2.32,6.31,2.62,8.59c0.22,1.68,0.86,3.44,2.2,6.09c1.05,2.06,1.91,4.11,1.91,4.56
				c0,0.97,1.23,2.24,2.99,3.14c0.93,0.49,1.42,1.16,2.02,2.69c0.75,1.91,0.97,2.13,3.21,3.25c1.42,0.67,3.06,1.87,3.92,2.84
				c0.82,0.93,1.98,1.79,2.54,1.91c0.6,0.15,1.68,0.64,2.43,1.12c1.49,0.97,5.46,1.98,9.71,2.47c2.24,0.22,3.03,0.19,4.48-0.37
				c0.97-0.37,2.69-0.78,3.85-0.93l2.09-0.26l0.26,1.35c0.3,1.61-0.26,2.54-3.59,6.09c-2.24,2.35-2.54,3.06-1.64,3.81
				c1.01,0.82,8,4.11,10.5,4.93c1.46,0.45,4.71,1.72,7.29,2.8c4.26,1.83,5.01,2.28,8.86,5.6c2.58,2.24,4.97,3.96,6.2,4.48
				c1.05,0.45,3.29,1.53,4.93,2.43c2.84,1.57,3.06,1.76,4.18,4.07C601.92,212.52,602.4,214.39,601.88,216.33z"/>
		</g>
	</g>
	<g>
		<rect x="258.72" y="454.51" class="st2" width="55.78" height="11.05"/>
		<rect x="314.5" y="454.51" class="st3" width="55.78" height="11.05"/>
		<rect x="370.27" y="454.51" class="st4" width="55.78" height="11.05"/>
	</g>
</g>
</svg>
