<?xml version="1.0" encoding="utf-8"?>
<!-- Generator: Adobe Illustrator 27.8.1, SVG Export Plug-In . SVG Version: 6.00 Build 0)  -->
<svg version="1.1" id="Livello_1" xmlns="http://www.w3.org/2000/svg" xmlns:xlink="http://www.w3.org/1999/xlink" x="0px" y="0px"
	 viewBox="0 0 683 228.5" style="enable-background:new 0 0 683 228.5;" xml:space="preserve">
<style type="text/css">
	.st0{fill:#868686;}
	.st1{fill:#93C01F;}
	.st2{fill:#009540;}
	.st3{fill:#FFFFFF;stroke:#D9D9D9;stroke-width:0.1;stroke-miterlimit:10;}
	.st4{fill:#E20613;}
</style>
<g>
	<g>
		<path class="st0" d="M446.91,92.73v-40.2h5.74v40.2H446.91z"/>
		<path class="st0" d="M473.84,92.73v-35.2h-13.78v-5h33.25v5h-13.78v35.2H473.84z"/>
		<path class="st0" d="M516.53,52.53h-5.71l-18.19,40.2h5.9l4.43-10.05h21.34l4.43,10.05h6.03L516.53,52.53z M504.98,78.09
			l8.68-19.69l8.65,19.69H504.98z"/>
		<path class="st0" d="M541.9,92.73v-40.2h5.74v35.2h21.77v5H541.9z"/>
		<path class="st0" d="M577.16,92.73v-40.2h5.74v40.2H577.16z"/>
		<path class="st0" d="M613.9,52.53h-5.68l-18.22,40.2h5.93l4.4-10.05h21.38l4.43,10.05h6.03L613.9,52.53z M602.38,78.09l8.65-19.72
			l8.68,19.72H602.38z"/>
		<polygon class="st0" points="673.85,52.53 673.85,92.73 669.16,92.73 645.04,62.81 645.04,92.73 639.3,92.73 639.3,52.53 
			643.99,52.53 668.11,82.46 668.11,52.53 		"/>
	</g>
	<g>
		<polygon class="st0" points="474.92,180.92 474.92,185.93 445.76,185.93 445.76,145.73 474.12,145.73 474.12,150.74 451.5,150.74 
			451.5,163.09 471.64,163.09 471.64,167.97 451.5,167.97 451.5,180.92 		"/>
		<polygon class="st0" points="519.72,145.73 502.07,185.93 496.39,185.93 478.72,145.73 484.91,145.73 499.39,178.79 
			513.97,145.73 		"/>
		<polygon class="st0" points="555.16,180.92 555.16,185.93 525.97,185.93 525.97,145.73 554.33,145.73 554.33,150.74 
			531.71,150.74 531.71,163.09 551.88,163.09 551.88,167.97 531.71,167.97 531.71,180.92 		"/>
		<polygon class="st0" points="600.18,145.73 600.18,185.93 595.46,185.93 571.34,155.97 571.34,185.93 565.59,185.93 
			565.59,145.73 570.32,145.73 594.44,175.69 594.44,145.73 		"/>
		<path class="st0" d="M621.36,185.93v-35.2h-13.78v-5h33.25v5h-13.78v35.2H621.36z"/>
		<path class="st0" d="M659.44,186.39c-3.06,0-5.99-0.47-8.79-1.41c-2.79-0.94-5-2.15-6.61-3.65l2.12-4.48
			c1.53,1.34,3.48,2.45,5.86,3.33c2.37,0.88,4.84,1.32,7.41,1.32c2.34,0,4.23-0.27,5.69-0.8c1.45-0.53,2.53-1.27,3.22-2.21
			c0.69-0.94,1.03-2,1.03-3.19c0-1.38-0.45-2.49-1.35-3.33c-0.9-0.84-2.07-1.52-3.5-2.04c-1.43-0.52-3.01-0.97-4.74-1.35
			c-1.72-0.38-3.46-0.83-5.2-1.35c-1.74-0.52-3.33-1.18-4.77-1.98c-1.43-0.8-2.59-1.88-3.47-3.24c-0.88-1.36-1.32-3.11-1.32-5.25
			c0-2.07,0.55-3.97,1.64-5.71c1.09-1.74,2.77-3.14,5.05-4.19c2.28-1.05,5.18-1.58,8.7-1.58c2.33,0,4.65,0.31,6.95,0.92
			c2.3,0.61,4.29,1.49,5.97,2.64l-1.89,4.59c-1.72-1.15-3.54-1.98-5.46-2.5c-1.91-0.52-3.77-0.77-5.57-0.77
			c-2.26,0-4.12,0.29-5.57,0.86c-1.46,0.57-2.52,1.34-3.19,2.3c-0.67,0.96-1,2.03-1,3.22c0,1.42,0.45,2.55,1.35,3.39
			c0.9,0.84,2.07,1.51,3.5,2.01c1.43,0.5,3.01,0.95,4.74,1.35c1.72,0.4,3.46,0.85,5.2,1.35c1.74,0.5,3.33,1.15,4.77,1.95
			c1.44,0.8,2.59,1.88,3.47,3.22c0.88,1.34,1.32,3.06,1.32,5.17c0,2.03-0.55,3.91-1.67,5.66c-1.11,1.74-2.82,3.14-5.14,4.19
			C665.88,185.86,662.96,186.39,659.44,186.39z"/>
	</g>
	<g>
		<path class="st1" d="M155.71,117.53h33.73v76.86c-9.98,8.1-21.58,14.22-34.84,18.38c-13.26,4.12-26.81,6.22-40.62,6.22
			c-15.14,0-28.98-2.47-41.61-7.33c-12.63-4.9-23.64-11.86-33.03-20.88c-9.39-9.02-16.68-19.52-21.84-31.52
			c-5.16-11.97-7.73-25.23-7.73-39.77c0-14.58,2.58-27.84,7.73-39.81c5.16-12.01,12.48-22.5,21.99-31.52
			c9.46-9.02,20.55-15.98,33.14-20.88c12.63-4.86,26.7-7.33,42.17-7.33c16.2,0,30.9,2.69,44.08,8.03
			c13.18,5.34,24.27,13.18,33.33,23.5l-22.68,22.13c-7.55-7.59-15.69-13.15-24.45-16.76c-8.76-3.57-18.38-5.38-28.87-5.38
			c-10.35,0-19.78,1.66-28.36,4.97c-8.54,3.31-15.98,8.03-22.24,14.1c-6.26,6.08-11.16,13.26-14.66,21.54
			c-3.5,8.32-5.23,17.42-5.23,27.4c0,9.76,1.73,18.82,5.23,27.21c3.5,8.4,8.4,15.61,14.66,21.69c6.26,6.08,13.63,10.79,22.13,14.1
			c8.47,3.31,17.86,4.97,28.17,4.97c9.57,0,18.86-1.51,27.77-4.57c4.09-1.4,8.1-3.2,12.04-5.49V117.53z"/>
		<path class="st1" d="M408.81,79.66c-5.16-12.16-12.4-22.71-21.7-31.65c-9.31-8.94-20.32-15.84-33.03-20.73
			c-12.72-4.88-26.54-7.33-41.46-7.33c-15.11,0-29.02,2.49-41.74,7.46c-12.71,4.98-23.77,11.93-33.17,20.87
			c-9.4,8.94-16.68,19.44-21.83,31.51c-5.16,12.07-7.74,25.29-7.74,39.67c0,14.19,2.58,27.32,7.74,39.39
			c5.15,12.07,12.43,22.63,21.83,31.65c9.4,9.03,20.5,16.03,33.31,21.01c12.81,4.98,26.67,7.46,41.6,7.46
			c14.93,0,28.74-2.45,41.46-7.33c12.71-4.88,23.72-11.84,33.03-20.87c9.3-9.03,16.54-19.58,21.7-31.65
			c5.15-12.07,7.74-25.29,7.74-39.66C416.55,105.09,413.96,91.82,408.81,79.66z M289.97,143.69c-0.42,0.35-0.94,1.08-1.15,1.62
			c-0.37,0.91-0.37,1.01,0.05,1.83c0.26,0.49,0.44,1.15,0.44,1.47c0,0.33,0.21,1.19,0.47,1.94c0.44,1.31,0.47,1.47,0.12,3.07
			c-0.19,0.91-0.49,1.9-0.68,2.2c-0.19,0.28-0.4,1.03-0.49,1.69c-0.23,1.62-0.68,2.58-1.4,3.07c-0.59,0.37-0.63,0.37-0.96-0.12
			c-0.56-0.77-2.04-0.68-2.93,0.21c-0.59,0.56-0.66,0.77-0.44,1.15c0.12,0.26,0.23,0.59,0.23,0.73c0,0.47-2.39,1.4-3.63,1.4
			c-1.1-0.02-1.22-0.07-1.83-0.96l-0.66-0.94l-0.68,0.73c-0.98,1.05-1.31,0.82-1.22-0.82c0.02-0.73,0.16-1.52,0.28-1.76
			c0.14-0.23,0.23-1.01,0.23-1.69s0.12-1.66,0.26-2.18c0.14-0.52,0.23-1.31,0.23-1.76c-0.02-0.73,0.21-1.26,1.19-2.65
			c0.26-0.33,0.23-0.52-0.05-1.05c-0.3-0.49-0.54-0.63-1.17-0.63c-0.75-0.02-0.82-0.09-0.89-0.8c-0.07-0.63,0.07-0.94,0.66-1.55
			c0.73-0.75,0.73-0.82,0.56-2.13c-0.19-1.55-0.8-2.62-2.48-4.47c-1.19-1.29-1.31-1.62-0.82-2.6c0.19-0.35,0.47-1.71,0.63-3.04
			c0.33-2.46,0.77-3.44,1.08-2.29c0.09,0.4,0,0.82-0.23,1.19c-0.54,0.82-0.47,1.17,0.42,1.85c1.55,1.17,3.28,0.7,5.45-1.43
			c0.89-0.87,2.2-2.01,2.97-2.58c1.08-0.8,1.57-1.01,2.29-1.01c0.75,0,0.91,0.07,0.8,0.35c-0.07,0.23,0.07,0.44,0.4,0.61
			c0.63,0.28,1.17,1.64,1.15,2.83c-0.02,0.63,0.12,0.98,0.49,1.29c0.54,0.44,0.98,1.4,1.36,3c0.14,0.52,0.33,1.03,0.47,1.15
			c0.12,0.14,0.21,0.73,0.21,1.33C290.72,142.91,290.63,143.15,289.97,143.69z M375.75,148.39c-0.28,1.03-1.83,3.61-2.18,3.61
			c-0.44,0-2.25-0.91-2.62-1.36c-0.23-0.26-0.59-1.15-0.77-1.97c-0.19-0.84-0.7-2.01-1.17-2.72l-0.82-1.24l-1.45,0.14
			c-1.26,0.14-1.69,0.07-2.93-0.42c-0.8-0.33-1.78-0.87-2.18-1.17c-0.66-0.52-0.84-0.54-1.66-0.33c-0.82,0.21-1.15,0.52-2.43,2.25
			c-0.82,1.1-1.66,2.53-1.87,3.18c-0.21,0.63-0.63,1.57-0.94,2.04c-0.3,0.49-0.56,1.01-0.56,1.17c0,0.68,0.98,1.87,1.83,2.2
			c0.47,0.19,1.19,0.49,1.57,0.68c0.4,0.16,1.24,0.54,1.92,0.82s1.26,0.7,1.33,0.91c0.05,0.21,0.12,1.26,0.12,2.36
			c0.02,1.1,0.19,2.58,0.35,3.28c0.3,1.17,0.3,1.33-0.05,1.69c-0.21,0.21-1.29,0.59-2.34,0.87c-3.14,0.77-4.03,1.55-4.03,3.44
			c0,1.59-1.94,5.27-3.39,6.46c-0.28,0.21-0.82,1.05-1.22,1.87c-1.03,2.11-1.36,2.34-2.95,2.15c-1.45-0.16-2.01-0.7-2.53-2.39
			c-0.16-0.54-0.35-0.98-0.42-0.98c-0.4,0.02-1.22,0.68-1.71,1.33c-0.3,0.4-1.03,1.38-1.64,2.15c-0.82,1.08-1.12,1.73-1.24,2.55
			c-0.09,0.61-0.3,1.57-0.49,2.13c-0.47,1.52-0.42,1.87,0.52,3.28c1.66,2.46,1.85,3.56,0.91,5.41c-0.33,0.63-0.59,1.33-0.59,1.55
			c0,1.05-2.13,1.64-3.46,0.94c-0.35-0.19-1.36-0.4-2.22-0.49l-1.59-0.16l-0.87-1.33c-1.22-1.83-3.51-3.54-4.75-3.54
			c-0.7,0-2.11-0.59-5.78-2.36c-2.67-1.31-5.1-2.58-5.43-2.79c-0.33-0.23-1.1-0.59-1.76-0.8c-1.69-0.59-2.86-1.4-3.39-2.48
			c-0.68-1.33-0.59-2.06,0.49-4.19c1.01-1.97,1.78-2.69,3.18-2.97c0.63-0.12,0.73-0.05,1.12,0.82c0.23,0.54,0.49,0.96,0.56,0.96
			c0.07,0,0.63-0.54,1.22-1.19c1.52-1.73,1.73-1.71,5.71,0.56c2.39,1.36,2.9,1.47,3.89,0.96c0.84-0.44,3.04-0.49,5.08-0.09
			c1.26,0.23,2.55-0.05,4.42-0.94c0.96-0.44,2.18-0.77,3.51-0.96c1.15-0.14,2.53-0.47,3.11-0.7c0.59-0.26,1.69-0.59,2.46-0.75
			l1.4-0.3l0.4-1.33c0.4-1.31,0.4-1.36-0.07-2.13c-0.42-0.73-0.42-0.82-0.09-1.17c0.21-0.21,0.82-0.44,1.33-0.52
			c0.94-0.16,1.94-0.96,2.2-1.8c0.07-0.23-0.23-1.05-0.73-1.94c-0.8-1.43-0.87-1.64-0.7-2.83c0.16-1.29,0.14-1.33-1.01-2.97
			c-0.63-0.91-1.83-3.11-2.62-4.89c-1.55-3.35-1.73-3.56-2.76-2.86c-0.47,0.35-0.59,0.33-1.73-0.54c-0.68-0.49-1.38-1.08-1.57-1.31
			c-0.16-0.21-0.94-0.75-1.69-1.22c-1.36-0.82-1.59-1.1-1.15-1.38c0.61-0.37-0.14-2.83-1.12-3.72c-0.44-0.37-0.75-0.42-2.01-0.3
			c-0.84,0.07-1.9,0.3-2.34,0.49c-0.96,0.4-0.98,0.33-0.47-1.15c0.66-1.99,0.02-2.5-2.15-1.76c-2.27,0.8-2.95,0.3-2.74-2.01
			c0.23-2.22-1.5-4.26-3.58-4.26c-0.49,0-1.43-0.07-2.08-0.16c-1.12-0.16-1.22-0.14-2.58,0.91c-0.77,0.59-1.76,1.33-2.18,1.69
			c-0.42,0.35-0.82,0.59-0.89,0.52c-0.21-0.21,1.15-2.76,1.55-2.88c0.19-0.07,0.54-0.28,0.8-0.47c0.42-0.3,0.4-0.37-0.54-1.5
			c-0.75-0.89-1.24-1.24-1.97-1.43c-1.73-0.44-2.46-0.89-3.39-2.15c-0.52-0.68-1.38-1.71-1.92-2.29c-0.54-0.59-1.17-1.43-1.4-1.87
			c-0.49-0.96-0.98-1.43-2.11-1.99c-1.1-0.54-1.83-1.24-2.34-2.22c-0.44-0.89-3.51-3.56-4.35-3.84c-0.33-0.09-0.7,0.02-1.1,0.33
			c-0.75,0.59-1.03,0.59-1.22-0.02c-0.12-0.33,0.02-0.66,0.44-1.08c0.33-0.33,0.61-0.68,0.61-0.8c0-0.09-0.52-0.47-1.15-0.82
			c-0.75-0.4-1.22-0.82-1.29-1.17c-0.09-0.37-0.47-0.7-1.08-0.94c-0.84-0.33-0.98-0.52-1.31-1.62c-0.44-1.55-0.75-1.85-1.59-1.52
			c-0.35,0.12-0.73,0.23-0.84,0.23c-0.42,0-0.66-0.87-0.91-3.32c-0.19-1.85-0.4-2.83-0.82-3.65c-0.33-0.63-0.75-1.8-0.96-2.65
			c-1.52-5.95-2.81-7.73-5.15-7.14c-0.49,0.12-0.89-0.09-2.18-1.08c-2.79-2.18-3.09-2.36-3.82-2.2c-0.42,0.07-1.1-0.07-1.92-0.42
			c-2.72-1.22-4.92-1.01-5.9,0.56c-0.3,0.49-1.01,1.31-1.55,1.8c-0.54,0.49-1.17,1.31-1.38,1.85c-0.77,1.76-1.71,2.55-3.89,3.35
			c-2.55,0.94-3.02,0.94-3.51,0c-0.35-0.7-0.35-0.75,0.21-1.36c0.96-1.01,1.8-2.39,1.8-2.95c0-0.28-0.19-0.68-0.42-0.91
			c-0.42-0.35-0.52-0.35-1.59,0.12l-1.12,0.52l-2.25-0.54c-1.8-0.42-3.72-1.15-4.19-1.55c-0.05-0.02,0.21-0.8,0.54-1.69
			c0.52-1.31,0.59-1.73,0.37-2.25c-0.3-0.84-0.35-0.7,0.73-1.9c1.26-1.36,1.15-2.01-0.4-2.6c-0.77-0.3-1.4-0.8-2.22-1.78
			c-0.63-0.77-1.15-1.47-1.15-1.57c0-0.61,1.85-1.66,2.93-1.66c0.87,0,2.69-1.83,2.86-2.86c0.12-0.8,0.02-0.98-0.8-1.9
			c-0.54-0.59-1.12-1.55-1.33-2.22c-0.26-0.73-0.59-1.24-0.84-1.33c-0.52-0.16-0.77-0.73-0.56-1.33c0.07-0.23,0.87-0.82,1.8-1.26
			c1.52-0.77,1.73-0.82,2.43-0.59c0.63,0.23,1.03,0.21,2.11-0.09c0.91-0.26,1.71-0.35,2.53-0.23c1.03,0.12,1.31,0.07,2.11-0.49
			c1.85-1.22,2.43-1.97,2.6-3.23c0.14-1.05,0.3-1.33,1.47-2.5c0.73-0.7,1.55-1.36,1.83-1.43c0.54-0.14,0.54-0.16,0.89,1.97
			c0.09,0.56,0.49,1.31,1.1,1.99c1.1,1.31,1.69,1.69,2.58,1.71c0.56,0,0.66,0.12,0.77,0.98c0.09,0.61,0.44,1.33,0.84,1.83
			c0.68,0.8,0.73,0.8,1.05,0.35c0.44-0.61,0.8-1.92,0.8-3.07c0-0.61,0.33-1.59,0.94-2.9c0.56-1.1,0.94-2.2,0.89-2.55
			c-0.05-0.42,0.07-0.68,0.49-0.87c0.8-0.4,1.15-0.19,1.47,0.94c0.52,1.87,1.05,2.08,3.58,1.43c1.03-0.28,1.43-0.3,1.5-0.09
			c0.05,0.14,0.37,0.61,0.75,1.01c0.59,0.66,0.68,0.7,1.03,0.35c0.52-0.52,0.49-1.78-0.09-3.07c-0.47-1.03-0.47-1.17-0.16-1.94
			c0.4-0.94,0.61-0.98,1.5-0.37c0.94,0.66,2.11,0.87,2.29,0.37c0.09-0.19-0.02-0.56-0.23-0.8c-0.26-0.28-0.37-0.87-0.37-1.94v-1.52
			l0.89-0.26c1.55-0.44,4.03,0.26,4.42,1.26c0.19,0.49,1.57,0.42,2.04-0.12c0.33-0.37,0.37-0.61,0.16-1.29
			c-0.21-0.8-0.19-0.87,0.4-1.17c0.35-0.16,1.47-0.49,2.5-0.73c1.03-0.21,2.29-0.49,2.81-0.59c0.52-0.12,1.4-0.21,1.99-0.23
			c0.59,0,1.52-0.16,2.11-0.33c1.57-0.52,1.71-0.47,1.52,0.26c-0.07,0.37-0.35,0.87-0.61,1.15c-0.59,0.61-0.56,0.68,0.21,1.01
			c0.59,0.26,1.57,1.43,2.32,2.76c0.21,0.37,0.63,0.56,1.4,0.68c0.63,0.07,1.87,0.4,2.81,0.7c1.22,0.4,2.2,0.56,3.58,0.56
			c1.19,0,2.5,0.16,3.46,0.44c0.87,0.26,1.85,0.52,2.22,0.59c1.03,0.23,0.77,0.87-1.01,2.46c-0.94,0.84-1.64,1.64-1.64,1.9
			c0,0.59,0.68,0.94,1.76,0.94c1.12,0,1.22,0.42,0.37,1.78c-0.91,1.52-0.96,1.78-0.26,1.97c0.49,0.12,0.59,0.26,0.54,0.96
			c-0.07,0.75,0.02,0.87,1.36,1.71c0.8,0.52,1.47,1.08,1.55,1.24c0.21,0.54-0.16,1.45-0.75,1.85c-0.63,0.4-0.56,0.44-2.22-1.59
			c-0.37-0.47-0.47-0.49-0.82-0.19c-0.3,0.26-1.03,0.35-2.6,0.35c-1.87,0-2.22,0.07-2.72,0.49c-0.28,0.26-1.59,1.05-2.88,1.71
			c-1.73,0.94-2.41,1.19-2.69,1.01c-0.52-0.33-1.45,0.23-2.18,1.33c-0.35,0.52-0.63,1.15-0.63,1.38c0,1.05,0.82,2.81,1.78,3.79
			c1.19,1.24,1.26,1.78,0.49,3.16c-0.52,0.89-0.59,0.94-1.5,0.87c-0.56-0.05-1.03,0.02-1.12,0.19c-0.19,0.33-0.02,1.26,1.19,6.32
			c0.63,2.65,0.91,3.49,1.33,3.82c0.28,0.23,2.39,1.69,4.66,3.23c2.29,1.55,4.33,3.04,4.54,3.35c0.3,0.47,0.47,0.54,1.03,0.37
			c0.56-0.16,0.75-0.07,1.36,0.54c0.37,0.42,0.82,1.01,0.98,1.31c0.61,1.17,1.45,3.96,1.64,5.38c0.14,1.05,0.54,2.15,1.38,3.82
			c0.66,1.29,1.19,2.58,1.19,2.86c0,0.61,0.77,1.4,1.87,1.97c0.59,0.3,0.89,0.73,1.26,1.69c0.47,1.19,0.61,1.33,2.01,2.04
			c0.89,0.42,1.92,1.17,2.46,1.78c0.52,0.59,1.24,1.12,1.59,1.19c0.37,0.09,1.05,0.4,1.52,0.7c0.94,0.61,3.42,1.24,6.09,1.55
			c1.4,0.14,1.9,0.12,2.81-0.23c0.61-0.23,1.69-0.49,2.41-0.59l1.31-0.16l0.16,0.84c0.19,1.01-0.16,1.59-2.25,3.82
			c-1.4,1.47-1.59,1.92-1.03,2.39c0.63,0.52,5.01,2.58,6.58,3.09c0.91,0.28,2.95,1.08,4.57,1.76c2.67,1.15,3.14,1.43,5.55,3.51
			c1.62,1.4,3.11,2.48,3.89,2.81c0.66,0.28,2.06,0.96,3.09,1.52c1.78,0.98,1.92,1.1,2.62,2.55
			C375.77,146,376.08,147.18,375.75,148.39z"/>
	</g>
	<g>
		<rect x="523.83" y="116.36" class="st2" width="24.37" height="5.8"/>
		<rect x="548.2" y="116.36" class="st3" width="24.37" height="5.8"/>
		<rect x="572.56" y="116.36" class="st4" width="24.37" height="5.8"/>
	</g>
</g>
</svg>
